<svg xmlns="http://www.w3.org/2000/svg" width="1280" height="720" viewBox="0 0 1280 720">
  <defs>
    <linearGradient id="bg" x1="0" y1="0" x2="0" y2="1">
      <stop offset="0%" stop-color="#0B1020"/>
      <stop offset="40%" stop-color="#1E2735"/>
      <stop offset="65%" stop-color="#37507B"/>
      <stop offset="100%" stop-color="#0B1020"/>
    </linearGradient>
    <radialGradient id="glow" cx="50%" cy="115%" r="65%">
      <stop offset="0%" stop-color="#FF6A2B"/>
      <stop offset="24%" stop-color="#FF7A59"/>
      <stop offset="45%" stop-color="#FF9FB1"/>
      <stop offset="62%" stop-color="rgba(255,255,255,0)"/>
    </radialGradient>
    <filter id="soft" x="-20%" y="-20%" width="140%" height="140%">
      <feDropShadow dx="0" dy="6" stdDeviation="12" flood-color="#000" flood-opacity="0.25"/>
    </filter>
  </defs>
  <rect width="1280" height="720" fill="url(#bg)"/>
  <rect width="1280" height="720" fill="url(#glow)"/>
  <g transform="translate(220,140)" filter="url(#soft)">
    <rect x="0" y="0" width="520" height="360" rx="16" fill="#0f172a" stroke="#1f2937"/>
    <rect x="32" y="40" width="320" height="16" rx="8" fill="#e5e7eb" opacity=".8"/>
    <rect x="32" y="78" width="420" height="12" rx="6" fill="#94a3b8" opacity=".6"/>
    <rect x="32" y="102" width="380" height="12" rx="6" fill="#94a3b8" opacity=".6"/>
    <rect x="32" y="126" width="440" height="12" rx="6" fill="#94a3b8" opacity=".6"/>
    <rect x="32" y="150" width="300" height="12" rx="6" fill="#94a3b8" opacity=".6"/>
  </g>
  <g transform="translate(770,200) rotate(-6)" filter="url(#soft)">
    <rect x="0" y="0" width="360" height="260" rx="14" fill="#111827" stroke="#1f2937"/>
    <rect x="28" y="36" width="280" height="14" rx="7" fill="#e5e7eb" opacity=".85"/>
    <rect x="28" y="68" width="220" height="10" rx="5" fill="#9ca3af" opacity=".65"/>
    <rect x="28" y="88" width="260" height="10" rx="5" fill="#9ca3af" opacity=".65"/>
    <rect x="28" y="108" width="180" height="10" rx="5" fill="#9ca3af" opacity=".65"/>
  </g>
</svg>


