<svg xmlns="http://www.w3.org/2000/svg" width="1280" height="720" viewBox="0 0 1280 720">
  <defs>
    <linearGradient id="bg2" x1="0" y1="0" x2="0" y2="1">
      <stop offset="0%" stop-color="#0B1020"/>
      <stop offset="40%" stop-color="#1E2735"/>
      <stop offset="65%" stop-color="#37507B"/>
      <stop offset="100%" stop-color="#0B1020"/>
    </linearGradient>
    <radialGradient id="glow2" cx="50%" cy="115%" r="65%">
      <stop offset="0%" stop-color="#FF6A2B"/>
      <stop offset="24%" stop-color="#FF7A59"/>
      <stop offset="45%" stop-color="#FF9FB1"/>
      <stop offset="62%" stop-color="rgba(255,255,255,0)"/>
    </radialGradient>
    <filter id="soft2" x="-20%" y="-20%" width="140%" height="140%">
      <feDropShadow dx="0" dy="6" stdDeviation="12" flood-color="#000" flood-opacity="0.25"/>
    </filter>
  </defs>
  <rect width="1280" height="720" fill="url(#bg2)"/>
  <rect width="1280" height="720" fill="url(#glow2)"/>
  <g transform="translate(180,160) rotate(3)" filter="url(#soft2)">
    <rect x="0" y="0" width="460" height="320" rx="18" fill="#0f172a" stroke="#1f2937"/>
    <rect x="34" y="44" width="320" height="16" rx="8" fill="#e5e7eb" opacity=".85"/>
    <rect x="34" y="80" width="360" height="12" rx="6" fill="#94a3b8" opacity=".65"/>
    <rect x="34" y="102" width="300" height="12" rx="6" fill="#94a3b8" opacity=".65"/>
    <rect x="34" y="124" width="340" height="12" rx="6" fill="#94a3b8" opacity=".65"/>
  </g>
  <g transform="translate(740,220)" filter="url(#soft2)">
    <rect x="0" y="0" width="420" height="240" rx="16" fill="#111827" stroke="#1f2937"/>
    <rect x="28" y="36" width="300" height="14" rx="7" fill="#e5e7eb" opacity=".85"/>
    <rect x="28" y="66" width="260" height="10" rx="5" fill="#9ca3af" opacity=".65"/>
    <rect x="28" y="86" width="200" height="10" rx="5" fill="#9ca3af" opacity=".65"/>
    <rect x="28" y="106" width="280" height="10" rx="5" fill="#9ca3af" opacity=".65"/>
  </g>
</svg>


