<svg width="1024" height="240" viewBox="0 0 1024 240" xmlns="http://www.w3.org/2000/svg">
  <defs>
    <linearGradient id="h" x1="0" x2="1" y1="0" y2="1">
      <stop offset="0" stop-color="#e0f2fe"/>
      <stop offset="1" stop-color="#dbeafe"/>
    </linearGradient>
  </defs>
  <rect x="0" y="0" width="1024" height="240" rx="16" fill="url(#h)"/>
  <g transform="translate(40,32)">
    <rect x="0" y="24" width="420" height="160" rx="12" fill="#fff" stroke="#cbd5e1"/>
    <rect x="24" y="48" width="180" height="12" rx="6" fill="#e5e7eb"/>
    <rect x="24" y="72" width="280" height="12" rx="6" fill="#e5e7eb"/>
    <rect x="24" y="96" width="220" height="12" rx="6" fill="#e5e7eb"/>
  </g>
  <g transform="translate(540,16)">
    <rect x="0" y="0" width="420" height="200" rx="16" fill="#fff" stroke="#cbd5e1"/>
    <rect x="24" y="28" width="240" height="14" rx="7" fill="#e5e7eb"/>
    <rect x="24" y="56" width="320" height="12" rx="6" fill="#e5e7eb"/>
    <rect x="24" y="80" width="280" height="12" rx="6" fill="#e5e7eb"/>
    <rect x="24" y="104" width="220" height="12" rx="6" fill="#e5e7eb"/>
  </g>
</svg>

